<svg width="713" height="233" viewBox="0 0 713 233" fill="none" xmlns="http://www.w3.org/2000/svg">
<mask id="mask0_20_100" style="mask-type:luminance" maskUnits="userSpaceOnUse" x="96" y="0" width="65" height="116">
<path d="M96.2084 0.473938H160.208V115.667H96.2084V0.473938Z" fill="white"/>
</mask>
<g mask="url(#mask0_20_100)">
<path fill-rule="evenodd" clip-rule="evenodd" d="M127.729 0.473938C92.625 26.3906 86.2031 77.6041 112.729 115.552C99.7709 83.4635 105.51 44.3281 127.729 23.5729C149.943 44.3281 155.682 83.4635 142.724 115.552C169.25 77.6041 162.844 26.3906 127.729 0.473938Z" fill="#D09019"/>
</g>
<path fill-rule="evenodd" clip-rule="evenodd" d="M208.234 27.8854C191.667 27.5521 176.151 32.6198 163.146 41.5729C164.089 45.2604 164.807 48.9896 165.276 52.75C174.719 47.651 185.422 44.8646 196.708 45.0937C207.292 82.1562 182.135 121.568 141.25 130.443C190.589 119.969 220.979 72.5 208.234 27.8854Z" fill="#D09019"/>
<mask id="mask1_20_100" style="mask-type:luminance" maskUnits="userSpaceOnUse" x="137" y="81" width="119" height="68">
<path d="M137.542 81H255.531V149H137.542V81Z" fill="white"/>
</mask>
<g mask="url(#mask1_20_100)">
<path fill-rule="evenodd" clip-rule="evenodd" d="M255.276 98.7552C242.359 88.3698 226.979 82.9323 211.219 82.0938C209.786 85.474 208.146 88.75 206.318 91.901C217.068 93.6094 227.391 97.9792 236.312 105.151C221.755 141.771 176.302 157.688 137.854 138.271C183.703 161.401 237.911 142.427 255.276 98.7552Z" fill="#D09019"/>
</g>
<path fill-rule="evenodd" clip-rule="evenodd" d="M129.495 148.854C82.6823 169.12 72.4375 139.745 12.4844 171.937C68.8698 150.589 89.5052 188.719 129.495 148.854Z" fill="#49833D"/>
<path fill-rule="evenodd" clip-rule="evenodd" d="M129.495 148.854C176.302 169.12 186.552 139.745 246.5 171.937C190.099 150.589 169.464 188.719 129.495 148.854Z" fill="#49833D"/>
<path fill-rule="evenodd" clip-rule="evenodd" d="M48.0886 27.8854C64.6563 27.5521 80.1719 32.6198 93.1771 41.5729C92.2292 45.2604 91.5156 48.9896 91.0417 52.75C81.6042 47.651 70.8958 44.8646 59.6146 45.0937C49.0313 82.1562 74.1875 121.568 115.057 130.443C65.7344 119.969 35.3386 72.5 48.0886 27.8854Z" fill="#D09019"/>
<mask id="mask2_20_100" style="mask-type:luminance" maskUnits="userSpaceOnUse" x="0" y="81" width="119" height="68">
<path d="M0.963562 81H118.875V149H0.963562V81Z" fill="white"/>
</mask>
<g mask="url(#mask2_20_100)">
<path fill-rule="evenodd" clip-rule="evenodd" d="M1.04689 98.7552C13.9636 88.3698 29.3386 82.9167 45.1042 82.0781C46.5469 85.4583 48.1771 88.7344 50.0052 91.8854C39.2552 93.5938 28.9323 97.9635 20.0052 105.135C34.5625 141.755 80.0209 157.672 118.469 138.255C72.6198 161.401 18.4063 142.427 1.04689 98.7552Z" fill="#D09019"/>
</g>
<mask id="mask3_20_100" style="mask-type:luminance" maskUnits="userSpaceOnUse" x="283" y="13" width="394" height="136">
<path d="M283.115 13.1562H676.208V148.927H283.115V13.1562Z" fill="white"/>
</mask>
<g mask="url(#mask3_20_100)">
<path d="M381 94.7604L374.792 68.1771C374.578 67.25 373.755 66.5989 372.813 66.5989C372.807 66.5989 372.802 66.5989 372.797 66.5989C371.849 66.6041 371.026 67.2708 370.823 68.1979L366.458 87.8541L361.146 15.0364C361.068 13.9687 360.182 13.1458 359.115 13.1458C359.109 13.1458 359.109 13.1458 359.104 13.1458C358.036 13.151 357.151 13.9844 357.078 15.0521L349.188 137.573L344.167 81.4479C344.083 80.4948 343.349 79.7291 342.406 79.6041C341.453 79.4791 340.552 80.0312 340.224 80.9271L335.182 94.6562L283.641 94.7552V98.8333L335.542 98.7344C337.026 98.7291 338.37 97.7916 338.885 96.401L340.917 90.8594L345.828 145.74C345.979 147.437 347.37 148.797 349.063 148.906C349.141 148.911 349.214 148.911 349.292 148.911C350.135 148.911 350.938 148.609 351.578 148.047C352.276 147.432 352.693 146.583 352.75 145.661L359.24 44.9323L362.813 93.9062C362.917 95.3177 363.953 96.5156 365.333 96.8229C367.068 97.2031 368.797 96.1094 369.188 94.3698L372.859 77.8177L377.198 96.3906C377.536 97.8281 378.802 98.8385 380.281 98.8385L675.917 98.7396V94.6614L381 94.7604Z" fill="#C0272D"/>
</g>
<mask id="mask4_20_100" style="mask-type:luminance" maskUnits="userSpaceOnUse" x="261" y="11" width="127" height="159">
<path d="M261.193 11.4583H387.979V74.5416H261.193V11.4583ZM261.193 106.089H387.979V169.193H261.193V106.089Z" fill="white"/>
</mask>
<g mask="url(#mask4_20_100)">
<path d="M387.948 122.271L384.609 169.177H261.214V161.286C262.995 161.135 265.552 160.88 268.891 160.505C272.302 160.135 274.677 159.656 276.01 159.063C278.234 158.099 279.833 156.693 280.797 154.839C281.833 152.984 282.354 150.615 282.354 147.724V34.7969C282.354 32.276 281.906 30.0521 281.021 28.125C280.203 26.1979 278.531 24.6458 276.01 23.4583C274.307 22.5677 271.896 21.7187 268.781 20.901C265.74 20.0104 263.214 19.4948 261.214 19.3438V11.4531H327.865V19.3438C325.787 19.4219 323.078 19.7917 319.74 20.4583C316.479 21.125 314.104 21.7187 312.62 22.2344C310.099 23.125 308.354 24.6458 307.391 26.7917C306.5 28.9427 306.052 31.2396 306.052 33.6823V139.609C306.052 144.5 306.276 148.318 306.724 151.057C307.24 153.729 308.391 155.802 310.172 157.286C311.875 158.62 314.401 159.505 317.74 159.953C321.151 160.323 325.896 160.505 331.979 160.505C334.724 160.505 337.583 160.432 340.547 160.286C343.516 160.135 346.333 159.839 349.005 159.396C351.599 158.953 353.974 158.359 356.125 157.62C358.349 156.802 359.984 155.802 361.021 154.615C364.063 151.208 367.589 146.057 371.594 139.167C375.672 132.203 378.49 126.568 380.047 122.271H387.948Z" fill="black"/>
</g>
<mask id="mask5_20_100" style="mask-type:luminance" maskUnits="userSpaceOnUse" x="588" y="11" width="125" height="159">
<path d="M588.818 11.4583H712.609V74.5416H588.818V11.4583ZM588.818 106.089H712.609V169.193H588.818V106.089Z" fill="white"/>
</mask>
<g mask="url(#mask5_20_100)">
<path d="M712.641 50.9115H704.297C702.74 45.0573 699.479 38.7969 694.51 32.125C689.615 25.4583 684.906 21.7917 680.38 21.125C678.083 20.8281 675.339 20.6042 672.151 20.4583C669.037 20.3073 665.474 20.2344 661.474 20.2344H634.995V83.5885H653.13C658.615 83.5885 662.88 83.0365 665.922 81.9219C668.964 80.7396 671.557 78.9583 673.708 76.5885C675.193 74.9583 676.526 72.4375 677.714 69.0313C678.974 65.5469 679.787 61.8438 680.162 57.9167H688.615V119.828H680.162C679.938 116.568 679.156 112.859 677.823 108.708C676.563 104.563 675.193 101.557 673.708 99.7083C671.484 96.9635 668.667 95.1146 665.255 94.151C661.917 93.1146 657.875 92.5938 653.13 92.5938H634.995V146.948C634.995 149.391 635.479 151.578 636.443 153.505C637.406 155.432 639.115 156.99 641.563 158.172C642.672 158.693 645.083 159.323 648.792 160.063C652.5 160.802 655.318 161.208 657.245 161.286V169.177H588.833V161.286C591.057 161.135 594.026 160.917 597.734 160.62C601.443 160.25 603.849 159.802 604.964 159.286C607.188 158.323 608.781 156.911 609.745 155.063C610.786 153.135 611.302 150.839 611.302 148.167V34.349C611.302 31.9063 610.896 29.7552 610.078 27.9063C609.266 25.9792 607.557 24.4219 604.964 23.2344C602.958 22.2708 600.255 21.4219 596.844 20.6771C593.505 19.9375 590.833 19.4948 588.833 19.3438V11.4531H712.641V50.9115Z" fill="black"/>
</g>
<mask id="mask6_20_100" style="mask-type:luminance" maskUnits="userSpaceOnUse" x="401" y="11" width="164" height="159">
<path d="M401.167 11.4583H564.891V74.5469H401.167V11.4583ZM401.167 106.083H564.891V169.193H401.167V106.083Z" fill="white"/>
</mask>
<g mask="url(#mask6_20_100)">
<path d="M564.438 169.161H498.984V161.271C500.761 161.12 503.318 160.901 506.651 160.604C510.057 160.307 512.391 159.859 513.651 159.271C515.875 158.38 517.505 157.047 518.542 155.271C519.578 153.417 520.094 151.047 520.094 148.156V92.0365H445.974V146.932C445.974 149.526 446.38 151.714 447.198 153.49C448.089 155.271 449.792 156.823 452.307 158.156C453.568 158.823 455.792 159.49 458.979 160.156C462.234 160.823 464.792 161.198 466.646 161.271V169.161H401.193V161.271C402.969 161.12 405.526 160.901 408.859 160.604C412.266 160.307 414.599 159.859 415.859 159.271C418.083 158.38 419.714 157.047 420.75 155.271C421.787 153.417 422.307 151.047 422.307 148.156V34.3646C422.307 31.9948 421.823 29.8437 420.859 27.9167C419.896 25.9167 418.229 24.3594 415.859 23.25C413.859 22.2865 411.417 21.4375 408.526 20.6927C405.708 19.9531 403.266 19.5104 401.193 19.3594V11.4688H466.646V19.3594C464.568 19.4375 462.016 19.7708 458.974 20.3594C456.016 20.9531 453.792 21.5104 452.307 22.026C449.792 22.9167 448.089 24.401 447.198 26.474C446.38 28.5469 445.974 30.8073 445.974 33.25V82.1458H520.094V34.3646C520.094 31.9948 519.615 29.8437 518.651 27.9167C517.688 25.9167 516.021 24.3594 513.651 23.25C511.651 22.2865 509.203 21.4375 506.318 20.6927C503.5 19.9531 501.057 19.5104 498.984 19.3594V11.4688H564.438V19.3594C562.359 19.4375 559.807 19.7708 556.766 20.3594C553.802 20.9531 551.583 21.5104 550.099 22.026C547.583 22.9167 545.875 24.401 544.99 26.474C544.172 28.5469 543.766 30.8073 543.766 33.25V146.932C543.766 149.526 544.172 151.714 544.99 153.49C545.875 155.271 547.583 156.823 550.099 158.156C551.359 158.823 553.583 159.49 556.766 160.156C560.026 160.823 562.583 161.198 564.438 161.271V169.161Z" fill="#D09019"/>
</g>
<path d="M181.279 192.882C185.821 191.757 188.144 191.194 188.258 191.194C188.394 191.194 188.789 191.397 189.446 191.798C190.097 192.205 190.425 192.46 190.425 192.569C190.425 192.684 190.3 193.152 190.05 193.986C189.867 194.6 189.43 196.142 188.737 198.611L187.862 202.048L188.196 202.757C188.446 203.205 188.555 203.439 188.529 203.465C188.487 203.507 186.935 203.876 183.883 204.569C180.826 205.225 179.3 205.564 179.3 205.59C179.269 205.59 179.222 206.267 179.154 207.611C179.071 209.001 179.05 210.392 179.091 211.777C179.133 213.152 179.201 214.001 179.3 214.319C179.477 214.975 179.784 215.439 180.216 215.715C180.659 215.996 181.352 216.189 182.3 216.298C185.034 216.59 187.8 216.371 190.591 215.632L191.133 215.423L191.091 214.986C191.05 214.694 190.966 213.725 190.841 212.069C190.716 210.418 190.654 209.496 190.654 209.298C190.654 209.163 190.706 209.08 190.821 209.048C190.93 209.007 191.222 208.913 191.696 208.757C192.456 208.621 192.852 208.564 192.883 208.59C192.951 208.705 193.175 210.21 193.55 213.111C193.935 216.001 194.117 217.46 194.091 217.486C193.977 217.559 193.394 217.731 192.341 218.007C191.284 218.288 190.362 218.496 189.571 218.632C187.638 218.923 185.909 219.069 184.383 219.069C182.633 219.069 181.216 218.96 180.133 218.736C178.341 218.309 177.175 217.126 176.633 215.194C176.492 214.767 176.425 213.35 176.425 210.944C176.425 208.585 176.492 206.694 176.633 205.277C176.742 204.001 176.8 203.272 176.8 203.09C176.8 203.09 176.831 203.09 176.904 203.09C176.972 203.09 177.06 203.106 177.175 203.132C177.284 203.147 177.394 203.152 177.508 203.152C177.867 203.267 178.164 203.298 178.404 203.257C178.638 203.215 179.216 203.106 180.133 202.923C183.216 202.205 184.831 201.809 184.987 201.736C185.081 201.694 185.242 201.236 185.466 200.361C185.867 198.902 186.102 198.069 186.175 197.861C186.326 197.168 186.529 196.371 186.779 195.465C186.998 194.481 187.055 193.986 186.946 193.986C186.831 194.017 186.091 194.215 184.716 194.59C184.383 194.663 183.914 194.777 183.321 194.944C182.722 195.1 182.013 195.293 181.196 195.527C180.373 195.767 179.742 195.939 179.3 196.048C177.008 196.632 175.847 196.913 175.821 196.882C175.748 196.84 175.435 196.475 174.883 195.777C174.341 195.059 174.123 194.673 174.237 194.632C174.555 194.564 176.904 193.981 181.279 192.882ZM163.987 187.444C163.987 187.293 164.18 187.293 164.571 187.444C165.055 187.585 165.513 187.731 165.946 187.882L166.654 188.09V191.861C166.654 194.402 166.706 195.673 166.821 195.673C166.888 195.673 167.519 195.507 168.716 195.173C169.925 194.856 170.529 194.694 170.529 194.694C170.597 194.767 170.821 195.152 171.196 195.861C171.581 196.569 171.779 196.944 171.779 196.986C171.737 196.986 171.008 197.189 169.591 197.59C168.144 197.981 167.331 198.194 167.154 198.236L166.758 198.34V201.132C166.758 203.022 166.769 203.965 166.8 203.965C166.841 203.965 167.925 203.705 170.05 203.173C172.185 202.647 173.326 202.361 173.466 202.319C173.534 202.293 173.623 202.356 173.737 202.507C173.847 202.647 174.013 202.934 174.237 203.361C174.638 204.126 174.821 204.527 174.779 204.569C174.706 204.6 173.617 204.85 171.508 205.319L168.3 206.152V209.027C168.3 210.934 168.31 211.897 168.341 211.923C168.409 211.965 169.789 211.621 172.487 210.882C172.998 210.746 173.269 210.673 173.3 210.673C173.341 210.788 173.492 211.184 173.758 211.861C174.034 212.527 174.175 212.876 174.175 212.902C174.144 212.944 173.164 213.225 171.237 213.736L168.404 214.444V217.444C168.362 219.444 168.373 220.481 168.446 220.548C168.529 220.663 170.263 221.251 173.654 222.319C177.055 223.392 180.321 224.397 183.446 225.34L186.237 226.111H197.966V226.444C197.966 226.626 197.977 227.1 198.008 227.861L198.133 228.84L196.05 228.944C194.769 228.986 192.644 229.038 189.675 229.111L185.362 229.277L184.383 228.944C181.175 227.996 175.623 226.205 167.737 223.548C162.612 221.913 160.029 221.106 159.987 221.132C159.956 221.147 159.617 221.84 158.966 223.215C158.451 224.231 157.852 225.309 157.175 226.444C156.508 227.569 156.138 228.142 156.071 228.173C155.998 228.215 155.529 228.053 154.654 227.694L153.446 227.09L154.446 225.673C157.388 221.246 159.513 216.423 160.821 211.215C161.039 210.382 161.196 209.939 161.279 209.882C161.373 209.83 161.805 209.944 162.571 210.236C163.071 210.418 163.352 210.538 163.425 210.59C163.508 210.647 163.55 210.746 163.55 210.882C163.144 212.522 162.539 214.434 161.737 216.611C161.529 217.309 161.383 217.772 161.3 218.007C161.227 218.246 161.227 218.361 161.3 218.361C161.3 218.361 162.05 218.6 163.55 219.069C165.034 219.585 165.779 219.819 165.779 219.777C165.821 219.751 165.784 217.621 165.675 213.382C165.56 209.147 165.487 207.007 165.446 206.965C165.414 206.923 163.654 207.33 160.154 208.173C157.362 208.856 155.93 209.194 155.862 209.194C155.779 209.194 155.487 208.835 154.987 208.111C154.539 207.46 154.362 207.111 154.446 207.069C154.513 207.043 156.034 206.647 159.008 205.882C160.8 205.481 162.367 205.1 163.716 204.736L164.029 204.673V201.944C164.029 200.1 164.008 199.152 163.966 199.111C163.935 199.069 163.341 199.215 162.175 199.548C161.05 199.871 160.451 200.017 160.383 199.986C160.341 199.944 160.091 199.59 159.633 198.923C159.185 198.246 159.019 197.871 159.133 197.798C159.159 197.757 159.977 197.522 161.591 197.09L163.987 196.444V192.027C163.987 190.392 163.987 188.861 163.987 187.444Z" fill="#C0272D"/>
<path d="M211.519 189.882C212.071 189.496 212.384 189.314 212.457 189.34C212.566 189.34 213.873 190.798 216.373 193.715C217.108 194.507 217.477 194.923 217.477 194.965C217.477 195.007 217.102 195.314 216.352 195.882C215.602 196.439 215.212 196.731 215.186 196.757C215.144 196.757 214.816 196.34 214.207 195.507C213.733 194.788 213.003 193.731 212.019 192.34L210.665 190.486L211.519 189.882ZM232.748 190.048C234.415 187.871 235.248 186.777 235.248 186.777C235.29 186.777 235.67 187.106 236.394 187.757L237.54 188.798L237.207 189.173C236.415 190.048 235.352 191.215 234.019 192.673C232.696 194.132 232.019 194.861 231.977 194.861C231.904 194.861 231.582 194.663 230.998 194.257C230.665 194.038 230.425 193.882 230.29 193.798C230.149 193.705 230.092 193.621 230.123 193.548C230.165 193.548 230.29 193.397 230.498 193.09C230.717 192.772 231.04 192.33 231.457 191.757C231.873 191.173 232.3 190.606 232.748 190.048ZM228.873 199.319H228.54C228.066 199.319 226.175 199.569 222.873 200.069C219.566 200.559 217.915 200.83 217.915 200.882C217.915 200.939 218.04 201.059 218.29 201.236C218.54 201.46 219.217 202.017 220.332 202.902C221.441 203.793 222.019 204.272 222.061 204.34C222.128 204.455 221.941 204.689 221.498 205.048C221.024 205.455 220.79 205.673 220.79 205.715C220.79 205.746 221.092 205.715 221.707 205.632C222.332 205.538 223.483 205.34 225.165 205.048L225.936 205.007L226.582 203.694C226.915 203.111 227.42 202.168 228.102 200.861L228.873 199.319ZM225.769 185.465C225.795 185.147 225.832 184.944 225.873 184.861C225.915 184.767 225.967 184.731 226.04 184.757C226.175 184.798 226.628 184.913 227.394 185.09C228.227 185.314 228.644 185.423 228.644 185.423C228.686 185.423 228.67 186.335 228.602 188.152C228.42 193.861 228.399 196.731 228.54 196.757C228.717 196.757 229.467 196.668 230.79 196.486C232.123 196.309 233.519 196.126 234.977 195.944L237.102 195.736L237.54 195.34L237.936 194.965L241.748 196.007C244.29 196.731 245.592 197.126 245.665 197.194C245.707 197.277 245.545 197.626 245.186 198.236L244.686 199.111L244.207 199.048C243.832 199.022 242.54 198.897 240.332 198.673C238.467 198.496 237.253 198.402 236.686 198.402C236.128 198.402 234.686 198.548 232.352 198.84C230.753 199.064 229.957 199.205 229.957 199.257C229.957 199.298 230.233 199.455 230.79 199.715C231.29 200.007 231.54 200.184 231.54 200.236C231.54 200.293 231.134 200.944 230.332 202.194C229.54 203.444 229.087 204.126 228.977 204.236C228.904 204.376 228.904 204.444 228.977 204.444C229.045 204.444 229.967 204.309 231.748 204.027C233.54 203.736 234.524 203.569 234.707 203.527C234.774 203.486 234.863 203.548 234.977 203.715C235.087 203.882 235.311 204.33 235.644 205.048C235.821 205.455 235.92 205.694 235.936 205.777C235.946 205.85 235.884 205.897 235.748 205.923C235.634 205.996 233.998 206.288 230.832 206.798C227.665 207.272 226.029 207.527 225.936 207.569C225.852 207.6 225.811 208.017 225.811 208.819C225.811 209.361 225.816 209.684 225.832 209.777C225.858 209.861 225.941 209.902 226.082 209.902C226.123 209.876 226.274 209.84 226.54 209.798C226.816 209.757 227.253 209.694 227.852 209.611C228.462 209.517 228.962 209.434 229.352 209.361C231.436 209.001 232.509 208.876 232.582 208.986C232.691 209.126 232.899 209.507 233.207 210.132C233.509 210.746 233.665 211.069 233.665 211.111C233.634 211.111 232.712 211.293 230.894 211.652C230.269 211.767 229.488 211.897 228.561 212.048C227.644 212.189 227.108 212.272 226.957 212.298C226.274 212.455 225.915 212.527 225.873 212.527C225.832 212.527 225.811 212.939 225.811 213.757C225.811 214.58 225.852 214.986 225.936 214.986C225.962 214.986 227.087 214.819 229.311 214.486C230.686 214.309 232.134 214.126 233.665 213.944C234.358 213.835 234.832 213.668 235.082 213.444C235.342 213.194 235.529 213.069 235.644 213.069C235.738 213.069 236.519 213.236 237.977 213.569C239.253 213.861 240.488 214.111 241.686 214.319C242.628 214.543 243.154 214.673 243.269 214.715C243.311 214.715 243.3 214.767 243.248 214.861C243.191 214.944 243.113 215.069 243.019 215.236C242.936 215.392 242.837 215.559 242.727 215.736L242.123 216.673L241.415 216.611C238.899 216.402 236.878 216.298 235.352 216.298C234.738 216.298 233.707 216.392 232.248 216.569C231.842 216.6 231.212 216.684 230.352 216.819C229.503 216.944 228.977 217.022 228.769 217.048C227.894 217.163 227.436 217.236 227.394 217.277C227.363 217.309 227.477 217.434 227.727 217.652C227.904 217.809 228.415 218.189 229.248 218.798C231.29 220.33 233.363 221.731 235.477 223.007L236.936 223.882L240.207 224.257C242.582 224.548 243.894 224.71 244.144 224.736L244.686 224.798L244.644 225.298C244.644 225.371 244.623 225.543 244.582 225.819C244.54 226.085 244.519 226.251 244.519 226.319C244.446 226.793 244.358 227.027 244.248 227.027C243.483 227.027 240.832 226.777 236.29 226.277L235.248 226.152L233.727 225.173C232.738 224.522 231.852 223.892 231.061 223.277C230.404 222.835 229.446 222.111 228.186 221.111C226.936 220.111 226.274 219.559 226.207 219.444C226.165 219.376 226.087 219.34 225.977 219.34C225.863 219.34 225.832 220.215 225.873 221.965C225.915 223.996 226.113 226.444 226.477 229.319C226.587 230.486 226.644 231.121 226.644 231.236C226.644 231.345 226.024 231.527 224.79 231.777C224.566 231.819 224.404 231.705 224.311 231.444C224.227 231.194 223.858 230.09 223.207 228.132L222.269 225.402L222.707 224.902L223.144 224.361L223.082 222.007L222.977 219.673L221.394 221.257C219.753 222.897 218.066 224.35 216.332 225.611C213.998 227.361 212.269 228.527 211.144 229.111L210.769 229.319L209.79 228.236C209.566 228.012 209.394 227.84 209.269 227.715C209.144 227.59 209.05 227.486 208.998 227.402C208.941 227.309 208.915 227.246 208.915 227.215C208.915 227.173 208.925 227.132 208.957 227.09C210.457 226.257 212.165 225.194 214.082 223.902C216.009 222.611 217.503 221.496 218.561 220.548C218.92 220.257 219.274 219.939 219.623 219.59C219.967 219.246 220.248 218.975 220.457 218.777C220.675 218.569 220.779 218.46 220.769 218.444C220.753 218.434 220.191 218.507 219.082 218.673C217.967 218.83 216.665 219.022 215.165 219.257C213.675 219.496 212.462 219.705 211.519 219.882C209.988 220.173 209.212 220.288 209.186 220.215C209.071 220.147 208.759 219.767 208.248 219.069C207.748 218.376 207.498 218.017 207.498 217.986C207.498 217.918 211.238 217.298 218.727 216.132L222.977 215.465L223.04 214.215C223.04 213.455 222.988 213.069 222.894 213.069C222.811 213.069 221.769 213.251 219.769 213.611C219.363 213.694 218.878 213.788 218.311 213.882C217.753 213.965 217.337 214.038 217.061 214.09C216.779 214.147 216.608 214.173 216.54 214.173C216.425 214.173 216.321 214.121 216.227 214.007C216.144 213.897 215.977 213.569 215.727 213.027C215.363 212.225 215.253 211.798 215.394 211.757C216.087 211.621 218.29 211.236 221.998 210.611C222.509 210.543 222.821 210.475 222.936 210.402C223.003 210.361 223.019 209.96 222.977 209.194C222.946 208.543 222.878 208.189 222.769 208.132C222.654 208.08 222.128 208.126 221.186 208.277C220.712 208.35 219.332 208.564 217.04 208.923C215.04 209.257 214.019 209.423 213.977 209.423C213.904 209.455 213.816 209.397 213.707 209.257C213.592 209.106 213.436 208.835 213.227 208.444C212.894 207.71 212.748 207.33 212.79 207.298C212.816 207.215 213.977 206.981 216.269 206.59C218.602 206.189 219.769 205.965 219.769 205.923C219.769 205.897 219.149 205.277 217.915 204.069C216.707 202.876 216.102 202.267 216.102 202.236C216.102 202.194 216.358 201.975 216.873 201.569C217.3 201.236 217.519 201.038 217.519 200.965C217.337 200.897 214.67 201.314 209.519 202.215C207.519 202.58 206.462 202.746 206.352 202.715C206.269 202.673 205.983 202.298 205.498 201.59C205.009 200.882 204.779 200.507 204.811 200.465C204.852 200.439 206.769 200.106 210.561 199.465C214.363 198.83 216.832 198.418 217.957 198.236C218.582 198.168 218.925 198.111 218.998 198.069C219.066 198.043 218.998 196.132 218.79 192.34C218.566 188.314 218.436 186.257 218.394 186.173C218.394 185.856 218.446 185.689 218.561 185.673C218.67 185.647 219.175 185.71 220.082 185.861L221.227 186.069L221.29 187.007C221.29 187.147 221.3 187.465 221.332 187.965C221.373 188.455 221.404 189.048 221.436 189.757C221.477 190.465 221.519 191.09 221.561 191.632C221.811 195.632 221.977 197.632 222.061 197.632C222.128 197.632 222.727 197.564 223.852 197.423L225.498 197.152L225.54 195.611C225.582 194.527 225.613 192.715 225.644 190.173C225.686 187.59 225.727 186.022 225.769 185.465Z" fill="#C0272D"/>
<path d="M283.842 205.819C284.384 205.71 284.764 205.632 284.988 205.59C285.082 205.59 285.499 205.725 286.238 205.986L287.28 206.465L287.322 207.673C287.363 208.548 287.384 212.71 287.384 220.152L287.426 231.507L286.572 232.007C285.947 232.366 285.613 232.527 285.572 232.486C285.54 232.486 285.181 232.09 284.488 231.298C283.874 230.559 282.874 229.486 281.488 228.069L279.426 226.007L279.967 225.236C280.369 224.694 280.603 224.402 280.676 224.361C280.744 224.319 281.41 224.819 282.676 225.861C283.952 226.902 284.613 227.423 284.655 227.423C284.655 226.955 284.655 225.293 284.655 222.444C284.655 219.585 284.634 216.496 284.592 213.173C284.561 209.84 284.551 208.152 284.551 208.111C284.509 208.111 283.457 208.309 281.405 208.694C279.348 209.069 278.306 209.293 278.28 209.361C278.238 209.402 278.238 209.965 278.28 211.048L278.384 212.694L278.759 212.632C279.228 212.564 279.957 212.418 280.947 212.194C282.113 211.902 282.707 211.757 282.738 211.757C282.848 211.871 283.03 212.21 283.28 212.777C283.54 213.335 283.655 213.632 283.613 213.673C283.54 213.715 282.832 213.918 281.488 214.277C280.181 214.6 279.327 214.814 278.926 214.923L278.322 215.027V216.777C278.29 217.069 278.28 217.35 278.28 217.611C278.28 217.861 278.28 218.064 278.28 218.215C278.28 218.356 278.28 218.439 278.28 218.465C278.306 218.465 278.78 218.34 279.697 218.09C281.832 217.507 282.926 217.236 282.967 217.277C282.994 217.35 283.155 217.673 283.447 218.257C283.738 218.84 283.884 219.147 283.884 219.173C283.884 219.257 282.926 219.559 281.009 220.069C279.103 220.569 278.139 220.876 278.113 220.986C278.04 221.059 278.009 221.205 278.009 221.423C278.009 222.663 277.603 224.475 276.801 226.861C276.551 227.71 276.077 228.777 275.384 230.069C274.686 231.361 274.249 232.007 274.072 232.007C273.999 232.007 273.572 231.809 272.78 231.423C271.999 231.048 271.613 230.84 271.613 230.798C271.613 230.757 271.79 230.444 272.155 229.861C273.473 227.725 274.426 225.361 275.009 222.777C275.509 220.236 275.702 216.111 275.592 210.402C275.52 207.684 275.52 206.319 275.592 206.319C275.702 206.319 276.103 206.423 276.801 206.632L277.78 206.965L280.342 206.465C281.869 206.173 283.035 205.96 283.842 205.819ZM255.301 195.069C255.926 194.642 256.249 194.423 256.28 194.423C256.322 194.423 256.952 195.189 258.176 196.715C259.395 198.246 260.134 199.189 260.384 199.548L260.717 199.923L259.884 200.694C259.301 201.21 258.936 201.538 258.801 201.673L258.426 201.944L256.447 199.007C255.139 196.965 254.473 195.923 254.447 195.882C254.447 195.788 254.728 195.517 255.301 195.069ZM268.613 191.423L269.113 191.694C269.113 191.694 269.551 191.913 270.426 192.34C270.926 192.632 271.176 192.835 271.176 192.944C271.176 193.059 270.228 194.788 268.342 198.132C268.27 198.272 268.124 198.527 267.905 198.902C267.697 199.267 267.592 199.444 267.592 199.444C267.327 199.918 267.16 200.152 267.092 200.152C267.051 200.152 266.707 199.996 266.072 199.673C265.447 199.34 265.113 199.152 265.072 199.111C265.03 199.111 266.061 196.876 268.176 192.402L268.613 191.423ZM261.155 185.694C261.113 185.652 261.16 185.632 261.301 185.632C261.494 185.673 261.806 185.767 262.238 185.902C262.415 185.944 262.681 186.022 263.03 186.132C263.374 186.246 263.582 186.298 263.655 186.298L264.03 186.402V194.257C264.03 199.455 264.061 202.048 264.134 202.048C264.217 202.048 264.53 201.96 265.072 201.777C268.082 200.876 269.613 200.444 269.655 200.486C269.697 200.517 269.884 200.923 270.217 201.715C270.561 202.496 270.738 202.882 270.738 202.882C270.598 202.981 268.494 203.6 264.426 204.736L264.03 204.84V207.673L264.592 207.132C264.91 206.798 265.103 206.632 265.176 206.632C265.259 206.632 266.749 207.981 269.655 210.673L270.197 211.215L269.217 212.257L268.301 213.298L266.926 211.882C266.27 211.121 265.561 210.371 264.801 209.632L264.03 208.819L264.092 214.882V220.882L264.634 225.402C264.967 228.371 265.113 229.902 265.072 229.986C264.999 230.053 264.613 230.158 263.905 230.298C263.197 230.449 262.822 230.507 262.78 230.465C262.738 230.434 262.363 229.059 261.655 226.34C260.947 223.606 260.577 222.069 260.551 221.736C260.509 221.642 260.665 221.402 261.03 221.027L261.53 220.486L261.467 214.59L261.363 208.652L260.592 210.069C260.119 210.835 259.54 211.777 258.863 212.902C258.306 213.819 257.452 215.152 256.301 216.902C255.16 218.642 254.556 219.527 254.488 219.569C254.457 219.6 254.124 219.46 253.488 219.152C252.848 218.85 252.363 218.606 252.03 218.423C251.931 218.314 251.895 218.225 251.926 218.152C251.967 218.069 252.165 217.814 252.53 217.382C254.098 215.423 255.681 213.168 257.28 210.611C257.665 210.069 258.197 209.21 258.863 208.027C259.54 206.85 259.884 206.225 259.884 206.152C259.884 206.152 259.863 206.152 259.822 206.152C259.79 206.152 259.728 206.163 259.634 206.173C259.551 206.189 259.473 206.215 259.405 206.257C257.655 206.772 255.54 207.392 253.072 208.111C252.957 208.111 252.645 207.746 252.134 207.007C251.634 206.257 251.384 205.861 251.384 205.819C251.494 205.819 253.145 205.35 256.342 204.402L261.259 202.986L261.197 194.423C261.165 188.673 261.155 185.767 261.155 185.694ZM279.738 186.465C279.738 184.246 279.744 183.132 279.759 183.132C279.785 183.132 280.249 183.225 281.155 183.402L282.467 183.736V186.507C282.467 188.371 282.52 189.298 282.634 189.298C282.744 189.298 283.598 189.132 285.197 188.798C286.832 188.481 287.723 188.319 287.863 188.319C288.014 188.319 288.27 188.684 288.634 189.402C288.967 190.309 289.077 190.757 288.967 190.757C288.811 190.757 287.702 190.981 285.634 191.423L282.53 192.027L282.467 193.611C282.509 194.585 282.561 195.069 282.634 195.069C282.676 195.069 283.29 194.923 284.488 194.632C285.681 194.382 286.301 194.257 286.342 194.257C286.41 194.215 286.488 194.267 286.572 194.402C286.665 194.527 286.827 194.809 287.051 195.236C287.41 195.96 287.592 196.34 287.592 196.382C287.52 196.423 286.702 196.606 285.134 196.923C283.619 197.288 282.785 197.486 282.634 197.527C282.52 197.569 282.467 198.246 282.467 199.548V201.507L282.738 201.465C283.431 201.314 285.197 200.981 288.03 200.465C289.155 200.288 289.827 200.09 290.051 199.882C290.27 199.663 290.473 199.606 290.655 199.715C291.197 199.965 292.264 200.418 293.863 201.069C295.832 201.902 296.853 202.34 296.926 202.382C296.926 202.423 296.785 202.689 296.509 203.173C296.244 203.663 296.02 204.069 295.842 204.402C295.801 204.402 295.16 204.225 293.926 203.861C291.811 203.277 290.577 202.944 290.217 202.861C289.853 202.767 289.53 202.731 289.238 202.757C286.764 203.09 281.092 204.236 272.217 206.194C270.978 206.486 270.327 206.632 270.259 206.632C270.186 206.606 269.869 206.267 269.301 205.611C268.728 204.944 268.447 204.6 268.447 204.569C268.447 204.486 268.936 204.34 269.926 204.132C270.91 203.913 271.619 203.767 272.051 203.694C272.884 203.543 274.681 203.173 277.447 202.59C278.764 202.314 279.436 202.173 279.467 202.173C279.509 202.132 279.54 201.475 279.572 200.194C279.613 198.96 279.577 198.34 279.467 198.34C279.353 198.34 278.702 198.486 277.509 198.777C276.384 199.001 275.686 199.132 275.426 199.173C275.327 199.205 275.238 199.163 275.155 199.048C275.082 198.939 274.926 198.647 274.676 198.173C274.27 197.496 274.077 197.132 274.092 197.09C274.119 197.048 275.03 196.835 276.822 196.444C278.624 196.043 279.561 195.788 279.634 195.673C279.702 195.564 279.738 195.022 279.738 194.048C279.738 193.064 279.702 192.569 279.634 192.569C279.561 192.569 278.54 192.772 276.572 193.173C276.098 193.272 275.603 193.371 275.092 193.465C274.592 193.564 274.207 193.642 273.947 193.694C273.697 193.736 273.572 193.757 273.572 193.757C273.54 193.757 273.301 193.361 272.842 192.569C272.384 191.767 272.16 191.356 272.176 191.34C272.202 191.33 273.452 191.085 275.926 190.611L279.697 189.882L279.738 186.465Z" fill="#C0272D"/>
<path d="M317.208 195.298C317.458 195.189 317.635 195.132 317.749 195.132C317.859 195.132 318.218 195.402 318.833 195.944L319.708 196.715L319.166 197.798C317.567 200.814 316.062 203.486 314.645 205.819C314.02 206.809 313.739 207.314 313.812 207.34C313.812 207.382 314.718 207.856 316.541 208.757C319.374 210.215 320.791 210.981 320.791 211.048C320.791 211.132 320.551 211.538 320.083 212.257C319.609 212.981 319.359 213.34 319.333 213.34C319.26 213.34 319.025 213.215 318.624 212.965C315.676 211.147 314.15 210.236 314.041 210.236C313.968 210.236 313.947 212.001 313.979 215.527C313.979 218.335 314.01 220.35 314.083 221.569C314.166 222.777 314.385 225.09 314.749 228.507C314.859 229.382 314.895 229.819 314.854 229.819C314.854 229.845 314.489 229.955 313.77 230.152L312.666 230.298L312.52 229.861C312.406 229.428 312.031 228.116 311.395 225.923C310.755 223.715 310.437 222.579 310.437 222.507C310.437 222.439 310.546 222.236 310.77 221.902L311.083 221.465L311.041 218.423C310.999 216.132 310.979 214.439 310.979 213.34C310.906 212.173 310.854 211.59 310.812 211.59C310.781 211.632 310.697 211.731 310.562 211.882C310.437 212.022 310.281 212.231 310.104 212.507C309.921 212.772 309.76 213.017 309.624 213.236C308.208 215.126 306.567 217.126 304.708 219.236C303.916 220.142 303.333 220.814 302.958 221.257C302.817 221.439 302.666 221.517 302.499 221.486C302.333 221.444 301.833 221.204 300.999 220.757L299.854 220.152L300.52 219.507C304.656 215.106 308.275 210.564 311.374 205.882C312.208 204.606 313.124 203.111 314.124 201.402C315.124 199.694 315.588 198.819 315.52 198.777C315.479 198.751 314.51 199.189 312.624 200.09C312.26 200.272 311.333 200.704 309.833 201.382C308.343 202.048 307.255 202.548 306.562 202.882L303.354 204.298L302.374 203.194C301.635 202.475 301.27 202.09 301.27 202.048C301.27 201.939 304.979 200.361 312.395 197.319C315.421 196.043 317.025 195.371 317.208 195.298ZM329.749 210.673C329.749 208.814 329.729 207.882 329.687 207.882C328.562 208.147 327.708 208.335 327.124 208.444C326.176 208.626 325.531 208.767 325.187 208.861C324.838 208.944 324.666 209.022 324.666 209.09C324.749 209.496 324.958 210.392 325.291 211.777C325.635 213.152 325.854 213.856 325.937 213.882C325.963 213.965 326.505 213.918 327.562 213.736C328.656 213.543 329.296 213.444 329.479 213.444H329.749V210.673ZM329.749 203.152C329.749 201.626 329.718 200.856 329.666 200.84C329.609 200.814 328.562 201.001 326.52 201.402C324.489 201.809 323.458 202.027 323.416 202.069C323.385 202.1 323.489 202.788 323.729 204.132C323.963 205.481 324.114 206.21 324.187 206.319C324.255 206.418 325.197 206.288 327.02 205.923L329.749 205.382V203.152ZM340.062 198.882C340.062 198.788 339.984 198.736 339.833 198.736C339.718 198.736 338.468 198.986 336.083 199.486L332.583 200.194L332.52 202.548C332.52 204.079 332.572 204.84 332.687 204.84C332.755 204.84 333.52 204.694 334.979 204.402C336.437 204.111 337.166 203.986 337.166 204.027C337.192 204.059 337.359 204.439 337.666 205.173C337.984 205.897 338.145 206.257 338.145 206.257C338.104 206.257 337.317 206.418 335.791 206.736C335.468 206.819 335.083 206.913 334.624 207.007C334.166 207.09 333.796 207.163 333.52 207.215C333.255 207.272 333.088 207.298 333.02 207.298L332.52 207.402V212.965L332.916 212.861C333.051 212.861 333.796 212.751 335.145 212.527C336.421 212.35 337.109 212.236 337.208 212.194C337.359 212.126 337.65 211.215 338.083 209.465C338.458 207.939 338.88 205.897 339.354 203.34C339.822 200.772 340.062 199.288 340.062 198.882ZM329.645 192.069V186.027L329.916 186.069C330.093 186.111 330.541 186.251 331.249 186.486C331.958 186.725 332.322 186.84 332.354 186.84C332.395 186.882 332.437 188.684 332.479 192.236L332.583 197.632L333.791 197.423C334.041 197.356 334.468 197.267 335.083 197.152C335.708 197.043 336.051 196.965 336.124 196.923C336.124 196.923 337.067 196.746 338.958 196.382L340.708 196.048L342.02 196.715L343.333 197.423L343.062 199.111C342.255 203.767 341.291 208.059 340.166 211.986L339.729 213.569L339.937 214.007C340.088 214.298 340.145 214.444 340.104 214.444C340.072 214.475 339.255 214.6 337.645 214.819C335.322 215.142 334.072 215.319 333.895 215.361L332.583 215.527L332.52 218.423C332.52 220.314 332.63 222.751 332.854 225.736C333.104 228.746 333.229 230.366 333.229 230.59V230.965L332.249 231.236C331.525 231.371 331.145 231.444 331.104 231.444C331.031 231.444 330.979 231.35 330.937 231.173C330.937 230.991 330.791 230.34 330.499 229.215C329.416 225.288 328.874 223.231 328.874 223.048C328.874 222.981 329.02 222.777 329.312 222.444L329.749 221.965V218.902C329.749 216.902 329.713 215.902 329.645 215.902C329.645 215.902 328.645 216.038 326.645 216.298C324.713 216.507 323.729 216.6 323.687 216.569C323.572 216.46 323.197 215.111 322.562 212.527C321.937 209.944 321.442 207.689 321.083 205.757C320.317 201.939 319.937 199.871 319.937 199.548C319.937 199.507 320.406 199.507 321.354 199.548C322.213 199.548 323.687 199.329 325.77 198.882C327.687 198.522 328.843 198.309 329.249 198.236L329.687 198.173L329.645 192.069ZM308.749 186.027C309.359 185.402 309.708 185.126 309.791 185.194C310.041 185.35 311.906 187.1 315.395 190.444L316.541 191.527L314.041 194.027L310.937 190.486L307.874 186.902L308.749 186.027Z" fill="#C0272D"/>
<path d="M371.781 187.923C372.031 187.423 372.177 187.173 372.219 187.173C372.219 187.173 372.307 187.189 372.489 187.215C372.64 187.257 372.807 187.309 372.989 187.361C373.167 187.418 373.349 187.481 373.531 187.548C374.323 187.84 374.719 188.017 374.719 188.069C374.719 188.126 374.39 188.897 373.739 190.382C373.083 191.871 372.635 192.871 372.385 193.382C372.135 193.897 372.01 194.225 372.01 194.361C372.036 194.361 372.052 194.361 372.052 194.361H372.156C372.156 194.361 372.177 194.361 372.219 194.361H372.281C372.281 194.361 372.292 194.361 372.323 194.361H372.719C380.052 193.642 383.937 193.277 384.385 193.277C384.385 193.277 384.417 193.277 384.489 193.277C384.489 193.309 384.583 193.715 384.781 194.507C384.989 195.288 385.094 195.673 385.094 195.673C385.021 195.715 382.094 196.043 376.302 196.652C373.469 196.902 371.703 197.106 371.01 197.257L370.427 197.319L369.323 199.173C368.667 200.329 367.89 201.689 366.989 203.257C366.114 204.715 365.677 205.46 365.677 205.486H365.739C365.739 205.486 365.75 205.486 365.781 205.486C365.781 205.486 365.781 205.481 365.781 205.465C365.781 205.454 365.781 205.444 365.781 205.444C365.781 205.444 365.812 205.444 365.885 205.444C365.885 205.444 365.906 205.444 365.948 205.444C365.948 205.444 365.948 205.423 365.948 205.382C365.989 205.382 366.01 205.382 366.01 205.382H366.052C366.052 205.382 366.052 205.361 366.052 205.319C366.161 205.293 366.328 205.246 366.552 205.173C367.995 204.413 369.208 203.975 370.198 203.861C371.182 203.751 371.875 203.694 372.281 203.694C373.364 203.694 374.364 203.856 375.281 204.173C375.958 204.439 376.583 204.871 377.156 205.465C377.724 206.064 378.135 206.746 378.385 207.507C378.604 208.022 378.724 208.288 378.739 208.298C378.75 208.314 378.76 208.319 378.76 208.319C378.802 208.319 378.823 208.319 378.823 208.319C378.932 208.319 379.75 207.814 381.281 206.798C382.807 205.788 384 204.954 384.864 204.298C385.156 204.079 385.328 203.965 385.385 203.965C385.437 203.965 385.682 204.314 386.114 205.007C386.557 205.689 386.781 206.069 386.781 206.152C386.781 206.152 386.781 206.189 386.781 206.257C386.781 206.257 386.765 206.272 386.739 206.298C386.724 206.314 385.974 206.819 384.489 207.819C383 208.809 381.765 209.59 380.781 210.173C380.125 210.621 379.719 210.902 379.552 211.027C379.385 211.152 379.302 211.251 379.302 211.319C379.302 211.319 379.302 211.34 379.302 211.382C379.344 211.564 379.375 212.621 379.406 214.548C379.448 216.481 379.469 217.809 379.469 218.527C379.469 219.251 379.453 219.689 379.427 219.84C379.385 220.132 379.286 220.309 379.135 220.361C378.995 220.418 378.51 220.46 377.677 220.486L376.531 220.548L376.573 216.944C376.656 215.751 376.698 214.84 376.698 214.215C376.698 213.522 376.656 213.142 376.573 213.069C376.573 213.043 376.557 213.027 376.531 213.027C376.458 213.027 376.292 213.1 376.031 213.236C375.781 213.376 374.765 213.923 372.989 214.882C370.25 216.397 368.417 217.585 367.489 218.444C366.573 219.309 366.078 220.277 366.01 221.361C366.01 221.402 366.01 221.423 366.01 221.423V221.465C366.01 221.465 366.01 221.486 366.01 221.527V221.694C366.01 223.251 366.719 224.397 368.135 225.132C369.437 225.788 371.349 226.111 373.864 226.111C376.833 226.069 380.104 225.397 383.677 224.09C384.687 223.731 385.219 223.548 385.26 223.548C385.26 223.621 385.417 224.059 385.739 224.861C386.031 225.444 386.177 225.84 386.177 226.048C386.177 226.121 386.161 226.152 386.135 226.152C385.437 226.486 384.146 226.923 382.26 227.465C379.969 228.158 378.073 228.533 376.573 228.59C375.083 228.642 374.125 228.673 373.698 228.673C371.724 228.673 369.995 228.491 368.51 228.132C366.87 227.689 365.562 226.861 364.594 225.652C363.635 224.434 363.156 223.126 363.156 221.736V221.694C363.156 221.694 363.156 221.673 363.156 221.632C363.156 221.632 363.156 221.621 363.156 221.59V221.423C363.265 219.746 364.052 218.194 365.51 216.777C366.229 216.059 367.203 215.319 368.427 214.569C369.646 213.819 371.677 212.689 374.51 211.173C375.703 210.507 376.302 210.126 376.302 210.027C376.302 209.835 376.265 209.579 376.198 209.257C375.765 207.798 375.114 206.918 374.239 206.611C373.364 206.309 372.656 206.152 372.114 206.152C371.198 206.152 370.161 206.392 369.01 206.861C367.62 207.293 366.015 208.106 364.198 209.298C363.432 209.814 362.802 210.397 362.302 211.048C360.219 213.564 359.073 214.84 358.864 214.882C358.864 214.882 358.844 214.882 358.802 214.882C358.661 214.882 358.427 214.798 358.094 214.632C357.76 214.465 357.417 214.277 357.073 214.069C356.739 213.85 356.573 213.71 356.573 213.652C356.573 213.6 356.875 213.204 357.489 212.465C359.489 209.996 361.656 206.871 363.989 203.09C364.573 202.257 365.099 201.418 365.573 200.569C366.042 199.71 366.411 199.022 366.677 198.507C366.953 197.996 367.094 197.704 367.094 197.632C366.76 197.632 364.614 197.856 360.656 198.298C359.932 198.413 359.479 198.465 359.302 198.465C359.187 198.465 359.12 198.444 359.094 198.402C359.078 198.361 358.953 197.975 358.719 197.236C358.479 196.486 358.364 196.069 358.364 195.986C358.364 195.892 360.239 195.642 363.989 195.236C364.307 195.236 364.745 195.215 365.302 195.173C367.01 194.996 368 194.861 368.281 194.777C368.573 194.684 368.792 194.507 368.948 194.257C369.015 194.147 369.052 194.059 369.052 193.986C369.271 193.543 369.724 192.564 370.406 191.048C371.099 189.522 371.557 188.481 371.781 187.923Z" fill="#C0272D"/>
<path d="M420.75 215.361L421.834 216.069C425.068 218.319 426.719 219.501 426.792 219.611C426.834 219.652 426.563 220.059 425.979 220.819C425.396 221.585 425.089 221.965 425.063 221.965C425.021 221.965 424.068 221.147 422.209 219.507C420.36 217.871 419.438 217.038 419.438 217.007C419.438 216.923 419.672 216.632 420.146 216.132L420.75 215.361ZM429.646 206.965C429.646 205.397 429.657 204.611 429.688 204.611C429.756 204.611 430.214 204.71 431.063 204.902C431.922 205.085 432.375 205.173 432.417 205.173C432.459 205.173 432.479 205.751 432.479 206.902C432.479 207.934 432.521 208.496 432.604 208.59C432.698 208.673 433.24 208.606 434.229 208.382C434.979 208.246 435.464 208.08 435.688 207.882L436.021 207.569L439.188 208.173C441.297 208.647 442.354 208.934 442.354 209.027C442.271 209.184 442.125 209.527 441.917 210.069L441.521 210.777L438.75 210.736L435.959 210.673L434.334 211.007C433.235 211.215 432.667 211.319 432.625 211.319C432.594 211.319 432.584 214.486 432.584 220.819L432.521 230.298L431.438 230.798C430.672 231.09 430.256 231.215 430.188 231.173C430.073 231.1 429.615 230.762 428.813 230.152C427.282 229.012 426.047 228.1 425.104 227.423C423.615 226.33 422.797 225.725 422.646 225.611C422.615 225.585 422.782 225.267 423.146 224.652C423.506 224.027 423.719 223.715 423.792 223.715C423.875 223.715 424.006 223.788 424.188 223.923C424.506 224.106 425.485 224.663 427.125 225.59C428.761 226.522 429.584 226.965 429.584 226.923C429.625 226.882 429.651 224.402 429.667 219.486C429.677 214.559 429.672 212.069 429.646 212.027C429.563 211.96 426.417 212.6 420.209 213.944C418.417 214.309 417.485 214.486 417.417 214.486C417.344 214.46 417.063 214.126 416.563 213.486C416.073 212.85 415.818 212.496 415.792 212.423C415.792 212.382 415.802 212.356 415.834 212.34C415.875 212.314 415.907 212.288 415.938 212.257C417.506 211.814 421.797 210.882 428.813 209.465L429.584 209.361L429.646 206.965ZM408.25 192.673C408.177 188.715 408.198 186.736 408.313 186.736C408.422 186.736 408.927 186.861 409.834 187.111L411.25 187.486L411.313 192.569C411.313 195.944 411.334 197.652 411.375 197.694C411.375 197.694 411.99 197.517 413.229 197.152C414.464 196.819 415.094 196.652 415.125 196.652C415.167 196.652 415.375 197.048 415.75 197.84C416.136 198.621 416.313 199.007 416.271 199.007C416.24 199.038 415.407 199.288 413.771 199.757L411.313 200.527V203.798C411.313 206.048 411.344 207.173 411.417 207.173C411.459 207.173 411.875 206.871 412.667 206.257C413.469 205.632 414 205.215 414.25 205.007C414.401 204.897 414.714 205.126 415.188 205.694C415.657 206.251 415.875 206.585 415.834 206.694C415.834 206.767 415.068 207.439 413.542 208.715L411.313 210.569V228.569L409.229 229.319L407.438 227.423C407.032 227.022 406.422 226.402 405.604 225.569C404.782 224.725 404.047 223.975 403.396 223.319C402.74 222.668 402.401 222.309 402.375 222.236C402.334 222.194 402.521 221.934 402.938 221.444C403.354 220.96 403.584 220.715 403.625 220.715C403.693 220.746 404.469 221.361 405.959 222.569C407.459 223.767 408.24 224.382 408.313 224.423C408.313 224.423 408.318 223.501 408.334 221.652C408.36 219.793 408.36 217.918 408.334 216.027C408.318 214.126 408.292 213.168 408.25 213.152C408.219 213.142 407.896 213.371 407.271 213.84C405.49 215.257 403.802 216.527 402.209 217.652L401.271 218.257L400.125 217.215C399.36 216.564 398.979 216.205 398.979 216.132C398.979 216.09 399.943 215.418 401.875 214.111C404.167 212.585 406.042 211.314 407.5 210.298L408.313 209.694V205.548C408.313 202.788 408.292 201.402 408.25 201.402C408 201.402 406.021 201.986 402.313 203.152C401.881 203.293 401.646 203.35 401.604 203.319C401.532 203.277 401.276 202.902 400.834 202.194C400.401 201.486 400.188 201.1 400.188 201.027C400.188 200.986 401.547 200.564 404.271 199.757L408.313 198.673L408.25 192.673ZM425.938 189.736C425.938 188.861 425.922 188.173 425.896 187.673C425.881 187.163 425.881 186.751 425.896 186.444C425.922 186.126 425.943 185.913 425.959 185.798C425.969 185.689 426 185.652 426.042 185.694C426.151 185.736 426.625 185.85 427.459 186.027L428.771 186.34V189.777C428.771 192.069 428.802 193.236 428.875 193.277C428.917 193.309 430.552 192.996 433.792 192.34C434.443 192.231 434.782 192.194 434.813 192.236C434.854 192.277 435.073 192.663 435.479 193.382C435.589 193.606 435.677 193.798 435.75 193.965C435.818 194.121 435.86 194.246 435.875 194.34C435.901 194.423 435.896 194.465 435.854 194.465C435.813 194.465 434.631 194.705 432.313 195.173L428.938 195.84L428.875 198.569C428.875 200.35 428.907 201.236 428.979 201.236C429.047 201.236 429.427 201.168 430.125 201.027C430.75 200.918 431.839 200.715 433.396 200.423C434.854 200.163 435.729 199.923 436.021 199.715L436.459 199.382L437.104 199.486C439.797 199.96 441.943 200.376 443.542 200.736C443.651 200.777 443.693 200.85 443.667 200.944C443.651 201.027 443.542 201.309 443.334 201.777C443.042 202.293 442.86 202.642 442.792 202.819C442.75 202.819 441.526 202.788 439.125 202.715L435.521 202.59L432.584 203.09C428.177 203.788 423.729 204.606 419.229 205.548L416.771 206.027L416.604 205.819C416.532 205.71 416.276 205.361 415.834 204.777C415.427 204.236 415.235 203.96 415.25 203.944C415.276 203.918 416.917 203.58 420.167 202.923C423.427 202.272 425.209 201.923 425.5 201.882C425.818 201.814 426 201.725 426.042 201.611C426.068 201.475 426.063 200.58 426.021 198.923C425.99 197.272 425.943 196.444 425.875 196.444C425.875 196.444 424.943 196.606 423.084 196.923C421.344 197.288 420.422 197.465 420.313 197.465C420.24 197.465 419.969 197.106 419.5 196.382C419.318 196.132 419.188 195.944 419.104 195.819C419.032 195.684 418.969 195.564 418.917 195.465C418.86 195.356 418.839 195.293 418.854 195.277C418.881 195.251 418.907 195.215 418.938 195.173C419.021 195.147 420.042 194.955 422 194.59C423.636 194.298 424.782 194.1 425.438 193.986L426.042 193.819L425.938 189.736Z" fill="#C0272D"/>
<path d="M468.615 188.152C468.657 187.892 468.73 187.757 468.845 187.757C468.912 187.757 469.35 187.96 470.157 188.361C470.725 188.652 471.074 188.84 471.199 188.923C471.334 188.996 471.407 189.1 471.407 189.236C471.365 189.46 471.136 190.298 470.72 191.757C470.303 193.205 469.912 194.418 469.553 195.402C469.22 196.309 469.053 196.871 469.053 197.09C469.053 197.163 469.074 197.194 469.115 197.194C469.251 197.194 470.016 197.106 471.407 196.923C471.808 196.856 472.558 196.757 473.657 196.632C474.766 196.507 475.522 196.402 475.928 196.319C477.23 196.111 478.001 195.986 478.24 195.944C478.475 195.902 478.683 195.777 478.865 195.569L479.199 195.298L481.928 195.944C482.261 195.986 483.334 196.225 485.157 196.652L485.699 196.757L485.428 197.319C485.053 197.892 484.85 198.194 484.824 198.236L484.595 198.736L483.511 198.611C482.813 198.611 481.85 198.6 480.615 198.569L478.824 198.465L473.365 199.173C469.725 199.673 467.891 199.944 467.865 199.986C467.824 200.059 467.511 200.71 466.928 201.944C465.871 204.46 464.709 206.986 463.449 209.527C463.074 210.225 462.787 210.809 462.595 211.277C462.397 211.751 462.303 211.986 462.303 211.986C462.371 211.986 462.563 211.876 462.886 211.652C464.746 210.751 467.22 209.897 470.303 209.09C472.412 208.58 474.266 208.319 475.865 208.319C477.584 208.361 479.1 208.689 480.407 209.298C481.199 209.705 481.949 210.33 482.657 211.173C483.365 212.007 483.85 212.809 484.115 213.569C484.251 214.225 484.324 214.897 484.324 215.59C484.324 216.564 484.084 217.736 483.615 219.111C483.141 220.475 482.162 221.897 480.678 223.382C478.313 225.606 475.167 227.205 471.24 228.173C468.949 228.684 467.438 228.944 466.72 228.944C466.537 228.944 466.136 228.58 465.511 227.861C464.928 227.168 464.636 226.798 464.636 226.757C464.636 226.731 465.126 226.642 466.115 226.486C472.001 225.652 476.308 223.923 479.032 221.298C480.824 219.564 481.72 217.788 481.72 215.965C481.72 215.673 481.699 215.361 481.657 215.027C481.365 212.892 480.095 211.527 477.845 210.944C477.188 210.725 476.438 210.611 475.595 210.611C474.871 210.611 474.074 210.705 473.199 210.882C468.876 211.647 464.72 213.215 460.72 215.59L459.678 216.173L458.095 214.548L459.136 212.527C460.261 210.46 461.501 207.986 462.865 205.111C464.225 202.236 464.907 200.673 464.907 200.423C464.907 200.423 464.907 200.402 464.907 200.361H464.865C464.532 200.361 461.98 200.71 457.22 201.402L455.157 201.611L454.928 201.34C454.787 201.132 454.532 200.715 454.157 200.09C453.725 199.481 453.511 199.152 453.511 199.111C453.511 199.069 453.891 199.048 454.657 199.048C455.49 199.048 456.105 199.038 456.511 199.007C457.272 198.897 458.949 198.663 461.532 198.298C464.516 197.923 466.022 197.725 466.053 197.694C466.204 197.517 466.605 196.277 467.261 193.986C467.845 191.809 468.292 189.861 468.615 188.152Z" fill="#C0272D"/>
<path d="M502.376 214.715C502.47 214.246 502.543 214.007 502.585 214.007C502.736 214.007 503.126 214.106 503.751 214.298C504.387 214.496 504.741 214.632 504.814 214.715C504.923 214.83 504.908 215.189 504.772 215.798C504.366 218.022 503.804 220.46 503.085 223.111C502.793 224.1 502.569 224.59 502.418 224.59C502.277 224.59 501.804 224.481 501.001 224.257C500.46 224.106 500.111 224.007 499.96 223.965C499.819 223.913 499.772 223.84 499.814 223.757C499.814 223.621 500.095 222.642 500.668 220.819C501.626 217.725 502.194 215.689 502.376 214.715ZM511.314 213.173C511.673 212.996 511.918 212.897 512.043 212.882C512.168 212.871 512.304 212.934 512.46 213.069C512.637 213.251 513.085 213.96 513.793 215.194C514.501 216.434 515.001 217.397 515.293 218.09C515.694 218.856 515.861 219.293 515.793 219.402C515.71 219.475 515.257 219.731 514.439 220.173C513.632 220.606 513.21 220.819 513.168 220.819C513.126 220.751 512.923 220.152 512.564 219.027C512.132 217.819 511.694 216.71 511.251 215.694C511.137 215.434 511.022 215.163 510.897 214.882C510.772 214.59 510.679 214.356 510.626 214.173C510.569 213.981 510.527 213.882 510.501 213.882C510.501 213.788 510.543 213.689 510.626 213.59C510.72 213.496 510.949 213.356 511.314 213.173ZM521.897 212.194C521.965 211.694 522.033 211.444 522.106 211.444C522.215 211.444 522.632 211.559 523.356 211.777C524.09 211.986 524.491 212.126 524.564 212.194C524.606 212.236 524.548 212.668 524.397 213.486C524.257 214.309 524.069 215.215 523.835 216.215C523.595 217.215 523.387 217.965 523.21 218.465C522.986 219.09 522.819 219.548 522.71 219.84C522.304 220.965 521.668 222.215 520.793 223.59C519.554 225.564 517.814 227.402 515.564 229.111C514.908 229.611 514.527 229.824 514.418 229.757C514.277 229.684 513.944 229.392 513.418 228.882C512.887 228.382 512.626 228.09 512.626 228.007C512.626 227.934 512.897 227.668 513.439 227.194C514.856 226.111 515.965 225.111 516.772 224.194C518.507 222.236 519.798 220.001 520.647 217.486C521.366 215.277 521.783 213.517 521.897 212.194ZM528.168 211.548C528.236 211.33 528.361 211.215 528.543 211.215C528.611 211.215 528.991 211.298 529.689 211.465C530.382 211.632 530.751 211.731 530.793 211.757C530.819 211.798 530.72 212.767 530.501 214.652C530.293 216.543 530.168 218.564 530.126 220.715C530.095 222.455 530.095 223.548 530.126 224.007C530.168 224.465 530.335 224.856 530.626 225.173C530.762 225.439 530.949 225.647 531.189 225.798C531.423 225.939 531.751 226.043 532.168 226.111C532.585 226.184 533.064 226.215 533.606 226.215C534.158 226.215 534.84 226.184 535.647 226.111C537.132 226.001 537.908 225.913 537.981 225.84C538.022 225.798 537.986 225.069 537.876 223.652C537.762 221.543 537.694 220.298 537.668 219.923C537.652 219.538 537.689 219.33 537.772 219.298C537.981 219.215 538.408 219.142 539.064 219.069C539.731 219.001 540.064 218.986 540.064 219.027C540.09 219.1 540.194 219.767 540.376 221.027C540.527 222.267 540.751 223.725 541.043 225.402C541.335 227.043 541.481 227.949 541.481 228.132C541.439 228.241 541.111 228.366 540.501 228.507C539.22 228.798 537.366 228.965 534.939 229.007C533.116 229.074 531.751 229.007 530.835 228.798C529.929 228.6 529.199 228.246 528.647 227.736C528.033 227.236 527.606 226.517 527.356 225.569C527.199 225.126 527.158 223.757 527.231 221.465C527.272 219.215 527.345 217.527 527.46 216.402C527.751 213.71 527.986 212.09 528.168 211.548ZM506.897 187.319C506.965 187.225 507.491 187.413 508.481 187.882L509.731 188.465L509.356 189.34C508.231 191.965 506.991 194.663 505.647 197.423C504.658 199.272 504.189 200.194 504.231 200.194C504.231 200.236 504.736 200.225 505.751 200.152C506.736 200.069 507.319 199.96 507.501 199.819C507.751 199.668 508.491 198.376 509.731 195.944C510.533 194.35 510.939 193.548 510.939 193.548C510.965 193.507 511.324 193.694 512.022 194.111C512.715 194.527 513.074 194.793 513.106 194.902C513.147 195.126 512.277 196.856 510.501 200.09C509.335 202.272 507.949 204.621 506.356 207.132C506.173 207.382 506.027 207.621 505.918 207.84C505.804 208.064 505.72 208.246 505.668 208.382C505.611 208.522 505.585 208.59 505.585 208.59C505.652 208.59 506.481 208.319 508.064 207.777C509.647 207.236 510.543 206.939 510.751 206.882C510.97 206.83 511.085 206.798 511.085 206.798C511.085 206.798 510.866 206.257 510.439 205.173C509.965 204.038 509.715 203.397 509.689 203.257C509.673 203.106 509.777 202.96 510.001 202.819C510.876 202.392 511.439 202.225 511.689 202.319C511.772 202.361 512.064 202.913 512.564 203.965C514.533 208.33 515.59 210.507 515.731 210.507C515.798 210.507 515.798 210.35 515.731 210.027C515.689 209.652 515.616 208.96 515.522 207.944C515.408 206.892 515.397 206.33 515.481 206.257C515.574 206.189 516.132 206.152 517.147 206.152C518.09 206.152 518.762 206.111 519.168 206.027C519.236 206.027 519.658 205.965 520.439 205.84C521.231 205.715 522.34 205.527 523.772 205.277C525.215 205.017 526.554 204.777 527.793 204.569C531.751 203.918 534.095 203.548 534.835 203.465C535.585 203.371 536.048 203.356 536.231 203.423C536.673 203.632 537.314 204.048 538.147 204.673C538.215 204.746 537.762 205.882 536.793 208.09C535.835 210.288 535.231 211.548 534.981 211.882L534.814 212.09L533.793 211.715C533.168 211.423 532.835 211.257 532.793 211.215C532.762 211.189 532.965 210.626 533.397 209.527C534.382 207.35 534.876 206.147 534.876 205.923C534.876 205.788 533.944 205.897 532.085 206.257C530.486 206.548 528.449 206.934 525.981 207.402C520.965 208.35 518.423 208.876 518.356 208.986C518.314 209.059 518.382 209.6 518.564 210.611C518.897 212.611 519.022 213.668 518.939 213.777C518.908 213.819 518.501 213.892 517.71 213.986C516.929 214.069 516.486 214.09 516.376 214.048C516.277 214.022 516.231 213.876 516.231 213.611C516.231 213.402 516.158 212.955 516.022 212.257C515.897 211.564 515.814 211.215 515.772 211.215C515.741 211.215 515.293 211.418 514.418 211.819C513.512 212.225 513.043 212.423 513.001 212.423C512.97 212.423 512.902 212.205 512.793 211.757C512.277 210.272 511.965 209.527 511.856 209.527C511.783 209.527 511.345 209.652 510.543 209.902L509.356 210.298L509.46 215.694C509.501 218.777 509.554 221.465 509.626 223.757C509.694 226.048 509.762 227.71 509.835 228.736C509.918 229.637 509.918 230.121 509.835 230.194C509.804 230.236 509.647 230.298 509.356 230.382C509.064 230.475 508.772 230.559 508.481 230.632C508.189 230.699 507.986 230.736 507.876 230.736C507.736 230.736 507.319 229.574 506.626 227.257L505.689 223.819L506.085 223.277L506.522 222.736V217.152C506.481 213.418 506.418 211.517 506.335 211.444C506.262 211.361 505.376 211.632 503.668 212.257C503.46 212.371 503.21 212.475 502.918 212.569C502.626 212.652 502.366 212.746 502.147 212.84C501.923 212.923 501.731 212.996 501.564 213.048C501.408 213.106 501.277 213.152 501.168 213.194C501.054 213.225 501.001 213.236 501.001 213.236C500.929 213.277 500.84 213.21 500.731 213.027C500.616 212.835 500.47 212.486 500.293 211.986C499.97 211.152 499.814 210.715 499.814 210.673C499.84 210.632 500.126 210.507 500.668 210.298L501.439 210.027L503.356 206.965C504.59 205.007 505.335 203.793 505.585 203.319L505.918 202.715H505.585C505.335 202.715 504.772 202.788 503.897 202.923C502.949 203.08 502.361 203.147 502.126 203.132C501.887 203.106 501.694 202.965 501.543 202.715C501.402 202.455 501.241 202.126 501.064 201.736L500.731 201.132L502.21 198.027C504.137 194.059 505.522 190.965 506.356 188.757C506.673 187.882 506.856 187.402 506.897 187.319ZM523.918 190.444C523.918 188.809 523.944 187.746 524.001 187.257C524.054 186.757 524.095 186.507 524.126 186.507C524.46 186.507 525.277 186.673 526.585 187.007L526.856 187.048V189.569C526.856 191.21 526.887 192.064 526.96 192.132C527.001 192.246 527.564 192.189 528.647 191.965C531.856 191.34 533.512 191.059 533.626 191.111C533.736 191.168 533.949 191.543 534.272 192.236C534.606 192.934 534.731 193.293 534.647 193.319C534.574 193.402 533.382 193.663 531.064 194.09C528.699 194.522 527.423 194.777 527.231 194.861L526.918 194.902L526.96 196.986C527.001 198.361 527.043 199.09 527.085 199.173C527.152 199.205 528.293 199.017 530.501 198.611C531.486 198.434 532.033 198.361 532.147 198.402C532.215 198.402 532.366 198.58 532.606 198.923C532.84 199.272 533.048 199.611 533.231 199.944C533.408 200.267 533.501 200.439 533.501 200.465C533.47 200.548 533.382 200.59 533.231 200.59C533.022 200.59 530.043 201.121 524.293 202.173C521.012 202.788 519.272 203.059 519.064 202.986C518.981 202.986 518.757 202.663 518.397 202.007C518.033 201.356 517.876 201.007 517.918 200.965C517.944 200.965 518.762 200.798 520.376 200.465C522.043 200.173 523.033 199.996 523.356 199.923C523.689 199.856 523.876 199.746 523.918 199.59C523.986 199.413 524.022 198.668 524.022 197.361V195.402L522.981 195.569C522.798 195.6 522.533 195.652 522.189 195.736C521.84 195.809 521.439 195.876 520.981 195.944C520.533 196.017 520.147 196.09 519.814 196.173C518.366 196.465 517.569 196.611 517.418 196.611C517.277 196.642 517.158 196.611 517.064 196.527C516.981 196.434 516.751 196.111 516.376 195.569C515.902 194.876 515.668 194.496 515.668 194.423C515.668 194.356 515.798 194.298 516.064 194.257C516.132 194.257 516.929 194.111 518.46 193.819C520.012 193.527 521.272 193.314 522.231 193.173L523.918 192.882V190.444Z" fill="#C0272D"/>
<path d="M579.575 188.632C579.658 188.673 579.705 188.96 579.721 189.486C579.731 190.017 579.742 191.585 579.742 194.194V194.965C579.742 195.038 579.742 195.106 579.742 195.173V195.402C579.742 195.475 579.742 195.507 579.742 195.507V196.611C579.742 198.71 579.783 199.757 579.867 199.757C580.002 199.757 580.398 199.746 581.054 199.715C581.747 199.606 582.205 199.46 582.429 199.277C582.679 199.1 582.835 199.007 582.908 199.007C582.976 199.007 583.726 199.205 585.158 199.59C586.601 199.965 587.502 200.225 587.867 200.361C588.127 200.434 588.262 200.486 588.262 200.527C588.262 200.569 588.117 200.918 587.825 201.569L587.325 202.486H586.783C586.377 202.486 585.58 202.455 584.387 202.382C584.346 202.382 584.325 202.382 584.325 202.382H584.283C584.242 202.382 584.221 202.382 584.221 202.382H584.158C584.085 202.382 584.054 202.382 584.054 202.382H584.012C584.012 202.382 583.992 202.382 583.95 202.382C583.908 202.382 583.887 202.382 583.887 202.382H583.783C583.783 202.382 583.762 202.382 583.721 202.382H583.242C583.2 202.382 583.179 202.382 583.179 202.382H583.137C582.33 202.382 581.622 202.402 581.012 202.444L579.575 202.548L579.533 204.173C579.533 204.397 579.512 204.6 579.471 204.777V205.111C579.471 205.152 579.471 205.189 579.471 205.215C579.471 205.215 579.471 205.236 579.471 205.277V205.548L579.429 205.715C579.429 206.147 579.408 206.6 579.367 207.069V207.173C579.294 207.397 579.262 207.6 579.262 207.777V207.882C578.929 212.038 578.356 215.361 577.554 217.861C576.762 220.35 575.533 222.694 573.867 224.902C573.46 225.376 572.825 226.08 571.95 227.007C571.075 227.934 570.434 228.559 570.033 228.882L569.554 229.319L568.408 228.673C567.643 228.225 567.262 227.991 567.262 227.965C567.262 227.85 567.564 227.564 568.179 227.09C570.106 225.455 571.669 223.652 572.867 221.694C574.21 219.517 575.21 216.84 575.867 213.673C576.085 212.439 576.309 210.715 576.533 208.507C576.752 206.288 576.867 204.626 576.867 203.527V202.757L575.825 202.819C574.768 202.934 572.148 203.168 567.971 203.527C566.288 203.642 565.288 203.694 564.971 203.694C564.856 203.694 564.783 203.689 564.742 203.673C564.71 203.647 564.564 203.277 564.304 202.569C564.054 201.861 563.929 201.475 563.929 201.402C563.997 201.361 567.106 201.048 573.262 200.465C575.731 200.215 576.981 200.08 577.012 200.048C577.054 200.007 577.08 198.017 577.096 194.069C577.122 190.126 577.163 188.152 577.221 188.152C577.273 188.152 577.643 188.231 578.325 188.382C579.018 188.522 579.434 188.606 579.575 188.632ZM556.033 189.736C556.101 189.184 556.169 188.902 556.242 188.902C556.242 188.902 556.663 189.043 557.512 189.319C558.372 189.6 558.804 189.746 558.804 189.757C558.804 189.772 558.71 190.397 558.533 191.632C557.143 199.746 556.45 206.798 556.45 212.798C556.45 212.871 556.45 212.902 556.45 212.902V213.027C556.45 213.059 556.45 213.106 556.45 213.173V213.34C556.45 213.34 556.45 213.361 556.45 213.402V213.507C556.45 213.507 556.45 213.527 556.45 213.569V213.611C556.45 213.611 556.45 213.632 556.45 213.673V213.736C556.45 213.736 556.45 213.751 556.45 213.777V214.715C556.559 218.314 556.747 221.965 557.012 225.673L557.054 226.486L555.804 226.757C555.189 226.871 554.788 226.923 554.596 226.923C554.596 226.923 554.58 226.923 554.554 226.923C554.554 226.923 554.533 226.923 554.492 226.923C554.492 226.856 554.346 225.08 554.054 221.59C553.913 219.882 553.846 217.246 553.846 213.673C553.846 210.106 553.913 207.522 554.054 205.923C554.455 201.022 555.117 195.626 556.033 189.736Z" fill="#C0272D"/>
<path d="M624.357 189.507C624.492 189.439 624.617 189.402 624.732 189.402C624.773 189.402 625.091 189.757 625.69 190.465C626.284 191.173 626.607 191.606 626.648 191.757C626.648 191.788 626.154 192.376 625.169 193.527C624.18 194.668 622.95 196.111 621.482 197.861C620.008 199.6 618.638 201.194 617.378 202.652C614.237 206.293 612.669 208.132 612.669 208.173C612.779 208.173 613.013 208.064 613.378 207.84C615.419 206.83 617.799 206.027 620.523 205.444C621.398 205.293 622.388 205.215 623.503 205.215C624.612 205.215 625.492 205.293 626.148 205.444C629.815 206.392 632.138 208.819 633.128 212.736C633.279 213.319 633.357 214.194 633.357 215.361C633.357 216.46 633.263 217.35 633.086 218.027C632.529 220.21 631.529 222.106 630.086 223.715C628.263 225.606 625.95 226.986 623.148 227.861C621.367 228.33 619.638 228.569 617.961 228.569C617.779 228.569 617.18 228.548 616.169 228.507C615.154 228.465 614.065 228.08 612.898 227.361C612.492 227.069 612.065 226.684 611.607 226.194C611.159 225.694 610.846 225.251 610.669 224.861C610.195 223.876 609.961 222.892 609.961 221.902C609.961 221.501 609.992 221.106 610.065 220.715C610.315 219.689 610.862 218.731 611.711 217.84C612.57 216.955 613.529 216.33 614.586 215.965C615.346 215.673 616.075 215.527 616.773 215.527C617.492 215.527 618.367 215.731 619.398 216.132C620.44 216.538 621.508 217.423 622.607 218.798C623.508 220.08 624.253 221.548 624.836 223.215L625.273 224.257L625.607 223.986C625.898 223.835 626.336 223.522 626.919 223.048C628.805 221.564 630.008 219.731 630.523 217.548C630.659 217.007 630.732 216.371 630.732 215.632V215.59C630.732 215.59 630.732 215.569 630.732 215.527V215.465C630.732 215.439 630.732 215.402 630.732 215.361V215.027C630.617 212.934 629.909 211.189 628.607 209.798C627.773 208.897 626.737 208.298 625.503 208.007C625.029 207.83 624.32 207.736 623.378 207.736C623.263 207.736 622.898 207.746 622.273 207.757C621.659 207.772 620.95 207.871 620.148 208.048C617.383 208.564 614.44 209.621 611.315 211.215C610.44 211.663 609.857 211.996 609.565 212.215C609.273 212.423 608.732 212.892 607.94 213.611C607.492 214.017 606.596 214.835 605.253 216.069C604.596 216.652 604.148 217.059 603.898 217.277L603.565 217.59L602.919 216.944C602.763 216.809 602.57 216.626 602.336 216.402C602.096 216.184 601.966 216.059 601.94 216.027L601.544 215.736L602.815 214.548C603.607 213.788 604.862 212.548 606.586 210.84C608.32 209.132 609.492 207.897 610.107 207.132C611.523 205.715 613.575 203.423 616.273 200.257C620.492 195.246 622.607 192.684 622.607 192.569C622.492 192.569 621.617 192.788 619.982 193.215C612.784 195.106 608.492 196.163 607.107 196.382C607.034 196.382 606.95 196.314 606.857 196.173C606.773 196.022 606.607 195.673 606.357 195.132C605.992 194.33 605.773 193.856 605.69 193.715V193.611C605.69 193.611 605.732 193.59 605.815 193.548C605.815 193.548 605.825 193.548 605.857 193.548C606.008 193.481 606.148 193.439 606.273 193.423C606.398 193.397 606.628 193.361 606.961 193.319C608.471 193.184 610.945 192.71 614.378 191.902C620.695 190.376 624.023 189.58 624.357 189.507ZM617.753 218.298C617.346 218.231 616.966 218.194 616.607 218.194C615.909 218.194 615.258 218.33 614.648 218.59C614.242 218.798 613.841 219.1 613.44 219.486C613.034 219.861 612.779 220.184 612.669 220.444C612.461 220.835 612.357 221.288 612.357 221.798C612.357 222.022 612.404 222.402 612.503 222.944C612.612 223.486 612.945 224.017 613.503 224.527C614.445 225.475 615.862 225.944 617.753 225.944C618.263 225.944 618.825 225.892 619.44 225.777C619.732 225.751 620.112 225.684 620.586 225.569H620.648C620.648 225.569 620.659 225.569 620.69 225.569H620.753C620.794 225.569 620.815 225.569 620.815 225.569C620.841 225.569 620.857 225.548 620.857 225.507C620.857 225.507 620.878 225.507 620.919 225.507C620.919 225.507 620.93 225.507 620.961 225.507C620.961 225.507 621.003 225.507 621.086 225.507C621.086 225.507 621.096 225.507 621.128 225.507C621.128 225.507 621.128 225.486 621.128 225.444C621.128 225.444 621.148 225.444 621.19 225.444C621.19 225.444 621.2 225.444 621.232 225.444C622.034 225.267 622.461 225.163 622.503 225.132V225.069C622.503 224.777 622.221 223.944 621.669 222.569C621.169 221.444 620.57 220.501 619.878 219.736C619.18 218.975 618.471 218.496 617.753 218.298Z" fill="#C0272D"/>
<path d="M647.243 193.048L647.305 192.673H648.493C649.118 192.673 649.472 192.689 649.555 192.715C649.649 192.731 649.701 192.788 649.701 192.882C649.701 193.579 649.618 195.356 649.451 198.215C649.284 201.064 649.055 205.048 648.763 210.173C648.763 210.257 648.743 210.647 648.701 211.34C648.67 212.022 648.623 213.059 648.555 214.444C648.513 215.777 648.456 216.59 648.388 216.882V217.486H645.888L645.93 217.007C645.972 216.715 645.993 216.392 645.993 216.027C645.993 215.652 646.003 215.231 646.034 214.757C646.076 214.257 646.107 213.736 646.138 213.194C646.18 212.642 646.222 212.09 646.263 211.548C646.44 208.34 646.602 205.434 646.743 202.819C646.894 200.194 647.024 197.835 647.138 195.736C647.164 194.975 647.18 194.376 647.18 193.944C647.18 193.501 647.201 193.204 647.243 193.048ZM646.159 222.736C646.451 222.652 646.664 222.611 646.805 222.611C646.956 222.611 647.138 222.652 647.347 222.736C647.972 222.918 648.414 223.215 648.68 223.632C648.956 224.048 649.097 224.548 649.097 225.132C649.097 225.814 648.878 226.413 648.451 226.923C647.977 227.397 647.409 227.632 646.743 227.632C646.086 227.632 645.545 227.371 645.118 226.84C644.685 226.314 644.472 225.746 644.472 225.132C644.472 224.981 644.477 224.856 644.493 224.757C644.503 224.647 644.534 224.517 644.576 224.361C644.685 224.001 644.894 223.673 645.201 223.382C645.503 223.09 645.826 222.876 646.159 222.736Z" fill="#C0272D"/>
</svg>
